PathFileType	4	(X/Y/Z)	C:\My Captures\DataSMARTClinic\0004~001 ID\0004~aa~STRATO_01\W2_STRATO_ID_01.trc
DataRate	CameraRate	NumFrames	NumMarkers	Units	OrigDataRate	OrigDataStartFrame	OrigNumFrames
250.00	250.00	8	18	mm	250.00	91	1811
Frame#	Time	r.should			l.should			c7			r.asis			l.asis			sacrum			r.bar1			l.bar1			r.knee1			l.knee1			r.bar2			r.mall			l.bar2			l.mall			r.met			r.heel			l.heel			l.met			
		X1	Y1	Z1	X2	Y2	Z2	X3	Y3	Z3	X4	Y4	Z4	X5	Y5	Z5	X6	Y6	Z6	X7	Y7	Z7	X8	Y8	Z8	X9	Y9	Z9	X10	Y10	Z10	X11	Y11	Z11	X12	Y12	Z12	X13	Y13	Z13	X14	Y14	Z14	X15	Y15	Z15	X16	Y16	Z16	X17	Y17	Z17	X18	Y18	Z18	

964	3.856000	-518.073499	1262.387514	362.220854	-593.284011	1259.118557	78.365758	-632.568002	1316.847801	228.483558	-483.710974	823.794484	364.627421	-468.734086	848.163188	111.098588	-684.170842	872.116804	227.409482	-578.242660	751.395643	427.616626	-515.855312	754.859507	46.862338	-689.650357	426.049709	382.313788	-411.897779	427.840501	92.101529	-734.993577	382.529020	390.808344	-904.926062	136.335164	353.303611	-403.052956	361.197352	91.797389	-356.183112	73.066451	133.949131	-821.761727	38.997140	336.243272	-969.361484	138.958812	306.816250	-414.590597	38.858630	177.260518	-228.039995	48.923582	164.612055	
965	3.860000	-513.096631	1263.080597	361.391693	-588.312030	1259.711385	77.612795	-627.821743	1317.409396	227.786377	-480.463743	824.075699	364.102125	-463.957369	849.291086	110.276952	-679.349244	872.700691	227.120787	-573.238850	751.582026	426.975518	-511.288047	755.048573	46.866778	-682.844520	425.738245	382.008314	-407.952756	427.886963	91.603085	-729.314983	382.639974	390.010118	-901.500702	138.801903	353.403091	-399.424404	361.176431	91.430232	-355.491638	72.817937	134.016663	-820.810974	38.971439	336.116552	-965.415955	142.656952	306.460679	-413.934976	39.014224	177.551523	-227.552637	47.965415	164.669216	
966	3.864000	-508.180737	1263.789654	360.594571	-583.311737	1260.343790	76.853529	-623.127162	1317.970276	227.102235	-475.470823	823.632419	362.257987	-459.180385	850.401402	109.466612	-674.523473	873.299003	226.801157	-568.345308	751.882553	426.318347	-506.729603	755.430222	46.336103	-675.829113	425.374657	381.725550	-404.303432	427.886307	91.090910	-724.619508	382.687747	388.203114	-897.873163	141.295299	353.473157	-395.959139	361.104846	91.012366	-354.866445	72.588429	134.126544	-820.951939	38.577780	335.553467	-961.187422	146.411538	306.041777	-413.553655	39.170042	177.667350	-227.170780	47.126446	164.879769	
967	3.868000	-503.301561	1264.515638	359.770000	-578.329802	1261.030793	76.062918	-618.448377	1318.541288	226.385966	-468.837465	822.883964	359.575659	-454.432189	851.483822	108.646944	-669.718325	873.910129	226.462632	-563.461840	752.175331	425.635725	-502.245545	755.751252	45.659252	-668.600202	424.946666	381.452143	-400.886118	427.866995	90.565510	-718.302250	382.872254	387.651265	-893.619895	143.917888	353.853285	-392.827392	361.071587	90.530902	-354.306996	72.398156	134.286106	-822.524309	37.721388	334.522098	-956.629872	150.178567	305.553883	-413.252413	39.303891	177.720070	-226.864606	46.376359	165.295586	
968	3.872000	-498.514265	1265.244246	358.976901	-573.341846	1261.734962	75.282559	-613.758504	1319.130301	225.649178	-462.023175	822.571278	357.246071	-449.688315	852.571428	107.837997	-664.925337	874.524176	226.094335	-558.631539	752.478540	424.942970	-497.880250	755.994201	44.912901	-661.707044	424.814343	381.662697	-397.682130	427.822232	90.063885	-711.439013	383.047104	387.419343	-888.589621	146.615475	354.654670	-389.836431	361.009002	90.076774	-353.799343	72.257489	134.482086	-822.229385	37.441656	334.133446	-951.750159	153.938681	304.964721	-413.010955	39.418276	177.755699	-226.583242	45.672216	165.880501	
969	3.876000	-493.777722	1265.951514	358.177841	-568.357468	1262.449503	74.494772	-609.083176	1319.726944	224.867836	-456.487456	823.435366	356.460124	-444.939882	853.617430	107.032947	-660.132229	875.159025	225.680172	-553.850889	752.821386	424.214184	-493.508816	756.216407	44.176314	-655.437768	425.269663	382.362008	-394.661844	427.792370	89.605808	-704.360127	383.220911	387.264997	-884.023011	149.182975	354.922771	-387.071550	360.913813	89.610450	-353.344262	72.149470	134.696364	-821.414590	37.282154	333.931237	-946.569502	157.751814	304.298669	-412.819058	39.502755	177.792132	-226.293579	45.000058	166.585952	
970	3.880000	-489.060819	1266.659737	357.375383	-563.355744	1263.194442	73.697105	-604.400516	1320.356965	224.045992	-453.689814	826.217115	358.408779	-440.212071	854.617298	106.245555	-655.343831	875.830054	225.221381	-549.035728	753.081024	423.413664	-489.128172	756.497979	43.459039	-648.192286	425.110400	382.298499	-391.849488	427.774519	89.142643	-697.044194	383.376718	387.138486	-879.367948	151.724517	355.052322	-384.537250	360.775620	89.118138	-352.925658	72.028041	134.937748	-820.410728	37.153453	333.808601	-940.985441	161.515445	303.539485	-412.669688	39.588433	177.822843	-226.006418	44.391390	167.305306	
971	3.884000	-484.375626	1267.391324	356.528312	-558.328867	1263.946652	72.903007	-599.717677	1321.002483	223.204717	-453.726812	830.695748	362.900168	-435.513854	855.585635	105.486609	-650.564671	876.510561	224.700183	-544.321775	753.370047	422.621548	-484.806925	756.818533	42.791188	-640.183151	424.214184	382.452518	-389.378726	427.616298	88.847563	-689.522862	383.540869	387.003273	-874.431729	154.263496	355.139345	-382.112235	360.584766	88.691659	-352.534473	71.898162	135.194480	-819.271564	37.054837	333.686173	-935.030282	165.204093	302.709699	-412.559271	39.665934	177.856952	-225.761682	43.857098	167.973578	
